<?xml version="1.0" encoding="UTF-8" standalone="no"?>
<svg
   xmlns:dc="http://purl.org/dc/elements/1.1/"
   xmlns:cc="http://creativecommons.org/ns#"
   xmlns:rdf="http://www.w3.org/1999/02/22-rdf-syntax-ns#"
   xmlns:svg="http://www.w3.org/2000/svg"
   xmlns="http://www.w3.org/2000/svg"
   xmlns:sodipodi="http://sodipodi.sourceforge.net/DTD/sodipodi-0.dtd"
   xmlns:inkscape="http://www.inkscape.org/namespaces/inkscape"
   version="1.1"
   id="logo_CCI"
   x="0px"
   y="0px"
   viewBox="0 0 500 96.199997"
   xml:space="preserve"
   sodipodi:docname="logo.svg"
   width="500"
   height="96.199997"
   inkscape:version="1.0.1 (3bc2e813f5, 2020-09-07)"><metadata
   id="metadata150"><rdf:RDF><cc:Work
       rdf:about=""><dc:format>image/svg+xml</dc:format><dc:type
         rdf:resource="http://purl.org/dc/dcmitype/StillImage" /><dc:title></dc:title></cc:Work></rdf:RDF></metadata><defs
   id="defs148" /><sodipodi:namedview
   pagecolor="#ffffff"
   bordercolor="#666666"
   borderopacity="1"
   objecttolerance="10"
   gridtolerance="10"
   guidetolerance="10"
   inkscape:pageopacity="0"
   inkscape:pageshadow="2"
   inkscape:window-width="1920"
   inkscape:window-height="1017"
   id="namedview146"
   showgrid="false"
   inkscape:zoom="2.428"
   inkscape:cx="250"
   inkscape:cy="63"
   inkscape:window-x="-8"
   inkscape:window-y="-8"
   inkscape:window-maximized="1"
   inkscape:current-layer="logo_reserve" />
<style
   type="text/css"
   id="style2">
	.blue-cci{fill:#3B3EEF;}
	.reserve{fill:#FFFFFF;}
</style>
<g
   id="g143">
	<g
   id="logo_reserve">
		<g
   id="g81">
			<path
   id="pastille"
   class="blue-cci"
   d="M 451.9,96.59 H 48.1 C 21.64,96.59 0,74.95 0,48.49 v 0 C 0,22.04 21.64,0.39 48.1,0.39 h 403.81 c 26.45,0 48.1,21.64 48.1,48.1 v 0 C 500,74.95 478.36,96.59 451.9,96.59 Z" />
			<g
   id="monogramme">
				<g
   id="g13">
					<path
   class="reserve"
   d="m 37.53,48.49 c 0,15.95 12.97,28.92 28.92,28.92 7.59,0 13.58,-2.86 17.78,-6.14 l -6.1,-6.81 c -3.35,2.42 -7.27,3.78 -11.68,3.78 -10.89,0 -19.75,-8.86 -19.75,-19.75 0,-10.88 8.86,-19.75 19.75,-19.75 2.82,0 5.49,0.6 7.92,1.67 L 78,21.99 C 74.46,20.44 70.55,19.57 66.45,19.57 50.5,19.57 37.53,32.55 37.53,48.49 Z"
   id="path5" />
					<path
   class="reserve"
   d="m 51.03,48.49 c 0,8.5 6.91,15.41 15.41,15.41 3.26,0 6.55,-1.16 8.66,-2.75 0,0 -5.73,-6.39 -6.23,-6.93 -0.51,0.25 -1.55,0.51 -2.43,0.51 -3.44,0 -6.24,-2.8 -6.24,-6.24 0,-3.44 2.82,-6.33 6.26,-6.33 0.89,0 1.77,0.21 2.54,0.55 l 3.62,-8.3 c -1.84,-0.78 -3.88,-1.32 -6.18,-1.32 -8.49,-0.01 -15.41,6.9 -15.41,15.4 z"
   id="path7" />
					<g
   id="g11">
						<path
   class="reserve"
   d="m 77.94,42.5 c 0.79,1.57 1.48,3.71 1.48,5.99 0,2.89 -1.22,6.02 -2.84,8.1 l 6.19,6.82 c 3.45,-3.69 5.82,-9.04 5.82,-14.92 0,-3.48 -0.87,-6.98 -2.33,-9.87 z"
   id="path9" />
					</g>
				</g>
				<g
   id="g17">
					<path
   class="reserve"
   d="m 75.37,39.08 15.7,-7.36 C 88.75,28.31 85.59,25.2 82.35,23.24 l -7.03,15.79 z"
   id="path15" />
				</g>
			</g>
			<g
   id="titre">
				<path
   class="reserve"
   d="M 126.45,24.39 124,27.3 c -1.13,-0.98 -2.33,-1.53 -3.8,-1.53 -2.69,0 -4.59,2.17 -4.59,7.38 0,5.11 1.87,7.29 4.68,7.29 1.68,0 2.91,-0.83 4.13,-1.78 l 2.27,2.94 c -1.38,1.41 -3.7,2.72 -6.64,2.72 -5.82,0 -9.7,-3.92 -9.7,-11.17 0,-7.1 4.1,-11.08 9.55,-11.08 2.88,-0.01 4.81,0.85 6.55,2.32 z"
   id="path20" />
				<path
   class="reserve"
   d="m 133.64,34.7 v 9.09 h -5.02 V 22.58 h 5.02 v 8.2 h 6.37 v -8.2 h 5.02 V 43.8 h -5.02 v -9.1 z"
   id="path22" />
				<path
   class="reserve"
   d="m 152.58,39.24 -1.07,4.56 h -5.2 l 6.4,-21.21 h 6.09 l 6.4,21.21 h -5.33 l -1.1,-4.56 z m 3.1,-13.02 -2.23,9.37 h 4.47 z"
   id="path24" />
				<path
   class="reserve"
   d="m 182.58,43.8 -0.37,-8.3 c -0.15,-2.97 -0.21,-6.03 -0.06,-8.66 l -3.28,14.73 h -4.74 l -3.49,-14.73 c 0.21,3.12 0.21,5.76 0.09,8.73 l -0.37,8.23 h -4.9 l 1.59,-21.21 h 6.34 l 3.18,14.39 2.97,-14.39 h 6.37 l 1.59,21.21 z"
   id="path26" />
				<path
   class="reserve"
   d="m 206.48,37.61 c 0,4.84 -3.92,6.18 -9.25,6.18 H 190.4 V 22.58 h 6 c 5.69,0 9.18,1.44 9.18,5.42 0,2.69 -1.93,4.1 -3.89,4.56 2.37,0.46 4.79,1.62 4.79,5.05 z m -11.05,-6.55 h 1.87 c 2.08,0 3.18,-0.8 3.18,-2.57 0,-1.77 -1.16,-2.36 -3.58,-2.36 h -1.47 z m 5.88,6.28 c 0,-2.14 -1.5,-2.94 -3.67,-2.94 h -2.2 v 5.76 h 1.84 c 2.34,-0.01 4.03,-0.5 4.03,-2.82 z"
   id="path28" />
				<path
   class="reserve"
   d="m 214.01,35.68 v 8.11 h -5.02 V 22.58 h 6.95 c 5.75,0 8.72,2.05 8.72,6.46 0,2.79 -1.32,4.47 -4.07,5.73 l 5.39,9.03 h -5.66 l -4.35,-8.11 h -1.96 z m 2.11,-3.46 c 2.2,0 3.37,-0.95 3.37,-3.18 0,-2.05 -1.19,-2.94 -3.67,-2.94 h -1.81 v 6.12 z"
   id="path30" />
				<path
   class="reserve"
   d="m 232.58,26.16 v 5.08 h 6.52 v 3.52 h -6.52 v 5.42 h 7.99 v 3.61 H 227.56 V 22.58 h 13.01 l -0.52,3.58 h -7.47 z"
   id="path32" />
				<path
   class="reserve"
   d="m 267.23,33.08 c 0,8.54 -5.14,10.71 -10.56,10.71 H 250.3 V 22.58 h 5.91 c 5.66,0 11.02,1.75 11.02,10.5 z m -11.91,7.07 h 1.65 c 3.03,0 5.05,-1.44 5.05,-7.07 0,-5.69 -2.17,-6.86 -5.11,-6.86 h -1.59 v 13.93 z"
   id="path34" />
				<path
   class="reserve"
   d="m 274.94,26.16 v 5.08 h 6.52 v 3.52 h -6.52 v 5.42 h 7.99 v 3.61 H 269.92 V 22.58 h 13.01 l -0.52,3.58 h -7.47 z"
   id="path36" />
				<path
   class="reserve"
   d="m 307.78,24.39 -2.45,2.91 c -1.13,-0.98 -2.33,-1.53 -3.8,-1.53 -2.69,0 -4.59,2.17 -4.59,7.38 0,5.11 1.87,7.29 4.68,7.29 1.68,0 2.91,-0.83 4.13,-1.78 l 2.27,2.94 c -1.38,1.41 -3.7,2.72 -6.64,2.72 -5.82,0 -9.7,-3.92 -9.7,-11.17 0,-7.1 4.1,-11.08 9.55,-11.08 2.88,-0.01 4.81,0.85 6.55,2.32 z"
   id="path38" />
				<path
   class="reserve"
   d="m 327.49,33.17 c 0,6.95 -3.58,11.14 -9.58,11.14 -5.97,0 -9.55,-4.07 -9.55,-11.14 0,-6.92 3.58,-11.11 9.55,-11.11 6,0 9.58,4.04 9.58,11.11 z m -13.87,0 c 0,5.39 1.53,7.47 4.29,7.47 2.88,0 4.32,-2.08 4.32,-7.47 0,-5.36 -1.47,-7.44 -4.32,-7.44 -2.82,0.01 -4.29,2.09 -4.29,7.44 z"
   id="path40" />
				<path
   class="reserve"
   d="m 346.01,43.8 -0.37,-8.3 c -0.15,-2.97 -0.21,-6.03 -0.06,-8.66 l -3.28,14.73 h -4.74 l -3.49,-14.73 c 0.21,3.12 0.21,5.76 0.09,8.73 l -0.37,8.23 h -4.9 l 1.59,-21.21 h 6.34 l 3.18,14.39 2.97,-14.39 h 6.37 l 1.59,21.21 z"
   id="path42" />
				<path
   class="reserve"
   d="m 369.97,43.8 -0.37,-8.3 c -0.15,-2.97 -0.21,-6.03 -0.06,-8.66 l -3.28,14.73 h -4.74 l -3.49,-14.73 c 0.21,3.12 0.21,5.76 0.09,8.73 l -0.37,8.23 h -4.9 l 1.59,-21.21 h 6.34 l 3.18,14.39 2.97,-14.39 h 6.37 l 1.59,21.21 z"
   id="path44" />
				<path
   class="reserve"
   d="m 382.82,26.16 v 5.08 h 6.52 v 3.52 h -6.52 v 5.42 h 7.99 v 3.61 H 377.8 V 22.58 h 13.01 l -0.52,3.58 h -7.47 z"
   id="path46" />
				<path
   class="reserve"
   d="m 398.61,35.68 v 8.11 h -5.02 V 22.58 h 6.95 c 5.76,0 8.73,2.05 8.73,6.46 0,2.79 -1.32,4.47 -4.07,5.73 l 5.39,9.03 h -5.66 l -4.35,-8.11 h -1.97 z m 2.11,-3.46 c 2.2,0 3.37,-0.95 3.37,-3.18 0,-2.05 -1.19,-2.94 -3.67,-2.94 h -1.81 v 6.12 z"
   id="path48" />
				<path
   class="reserve"
   d="m 426.99,24.39 -2.45,2.91 c -1.13,-0.98 -2.33,-1.53 -3.8,-1.53 -2.69,0 -4.59,2.17 -4.59,7.38 0,5.11 1.87,7.29 4.68,7.29 1.68,0 2.91,-0.83 4.13,-1.78 l 2.27,2.94 c -1.38,1.41 -3.7,2.72 -6.64,2.72 -5.82,0 -9.7,-3.92 -9.7,-11.17 0,-7.1 4.1,-11.08 9.55,-11.08 2.87,-0.01 4.8,0.85 6.55,2.32 z"
   id="path50" />
				<path
   class="reserve"
   d="m 434.17,26.16 v 5.08 h 6.52 v 3.52 h -6.52 v 5.42 h 7.99 v 3.61 H 429.15 V 22.58 h 13.01 l -0.52,3.58 h -7.47 z"
   id="path52" />
				<path
   class="reserve"
   d="m 116.35,56.77 v 5.08 h 6.52 v 3.52 h -6.52 v 5.42 h 7.99 V 74.4 H 111.33 V 53.19 h 13.01 l -0.52,3.58 h -7.47 z"
   id="path54" />
				<path
   class="reserve"
   d="M 135.91,57.04 V 74.4 h -5.02 V 57.04 h -5.48 v -3.86 h 16.23 l -0.49,3.86 z"
   id="path56" />
				<path
   class="reserve"
   d="m 167.22,63.69 c 0,8.54 -5.14,10.71 -10.56,10.71 h -6.37 V 53.19 h 5.91 c 5.66,0 11.02,1.74 11.02,10.5 z m -11.91,7.07 h 1.65 c 3.03,0 5.05,-1.44 5.05,-7.07 0,-5.69 -2.17,-6.86 -5.11,-6.86 h -1.59 z"
   id="path58" />
				<path
   class="reserve"
   d="m 174.19,53.43 c 0,0.8 -0.24,1.53 -0.89,2.85 l -1.96,4.04 h -2.48 l 1.29,-4.81 c -0.7,-0.49 -1.13,-1.13 -1.13,-2.11 0,-1.38 1.13,-2.45 2.6,-2.45 1.47,0 2.57,1.07 2.57,2.48 z"
   id="path60" />
				<path
   class="reserve"
   d="M 177.04,74.4 V 53.19 h 5.02 V 74.4 Z"
   id="path62" />
				<path
   class="reserve"
   d="m 195.68,74.4 -6.12,-16.44 c 0.24,1.93 0.64,4.75 0.64,8.66 v 7.78 h -4.47 V 53.19 h 6.24 l 6.28,16.47 c -0.28,-1.71 -0.67,-4.5 -0.67,-7.9 v -8.57 h 4.5 V 74.4 Z"
   id="path64" />
				<path
   class="reserve"
   d="m 222.64,63.69 c 0,8.54 -5.14,10.71 -10.56,10.71 h -6.37 V 53.19 h 5.91 c 5.66,0 11.02,1.74 11.02,10.5 z m -11.91,7.07 h 1.65 c 3.03,0 5.05,-1.44 5.05,-7.07 0,-5.69 -2.17,-6.86 -5.11,-6.86 h -1.59 z"
   id="path66" />
				<path
   class="reserve"
   d="m 233.29,74.92 c -5.54,0 -8.27,-3.09 -8.27,-7.56 V 53.19 h 5.02 v 13.96 c 0,2.72 0.98,4.04 3.24,4.04 2.3,0 3.28,-1.32 3.28,-4.04 V 53.19 h 5.02 v 14.17 c 0,4.29 -2.75,7.56 -8.29,7.56 z"
   id="path68" />
				<path
   class="reserve"
   d="m 259.12,55.39 -2.36,2.72 c -1.44,-1.19 -2.91,-1.77 -4.62,-1.77 -1.75,0 -2.85,0.73 -2.85,2.08 0,1.35 0.8,1.9 4.1,2.94 4.01,1.29 6.31,2.94 6.31,6.86 0,3.95 -3.12,6.7 -8.42,6.7 -3.67,0 -6.31,-1.35 -8.05,-3.03 l 2.57,-2.82 c 1.5,1.35 3.21,2.11 5.33,2.11 2.08,0 3.37,-0.98 3.37,-2.6 0,-1.56 -0.8,-2.27 -3.89,-3.21 -4.75,-1.47 -6.49,-3.43 -6.49,-6.58 0,-3.74 3.25,-6.12 7.65,-6.12 3.25,0 5.48,0.94 7.35,2.72 z"
   id="path70" />
				<path
   class="reserve"
   d="M 270.63,57.04 V 74.4 h -5.02 V 57.04 h -5.48 v -3.86 h 16.23 l -0.49,3.86 z"
   id="path72" />
				<path
   class="reserve"
   d="m 283.08,66.29 v 8.11 h -5.02 V 53.19 h 6.95 c 5.75,0 8.72,2.05 8.72,6.46 0,2.79 -1.32,4.47 -4.07,5.73 l 5.39,9.03 h -5.66 l -4.35,-8.11 h -1.96 z m 2.11,-3.46 c 2.2,0 3.37,-0.95 3.37,-3.18 0,-2.05 -1.19,-2.94 -3.67,-2.94 h -1.81 v 6.12 z"
   id="path74" />
				<path
   class="reserve"
   d="M 296.64,74.4 V 53.19 h 5.02 V 74.4 Z"
   id="path76" />
				<path
   class="reserve"
   d="m 310.35,56.77 v 5.08 h 6.52 v 3.52 h -6.52 v 5.42 h 7.99 V 74.4 H 305.33 V 53.19 h 13.01 l -0.52,3.58 h -7.47 z"
   id="path78" />
			</g>
		</g>
		
	</g>
</g>
</svg>
